<mxfile host="app.diagrams.net" agent="Mozilla/5.0 (Windows NT 10.0; Win64; x64) AppleWebKit/537.36 (KHTML, like Gecko) Chrome/136.0.0.0 Safari/537.36" version="27.1.1">
  <diagram name="Страница — 1" id="NZbn_GLvDckBzevisfvI">
    <mxGraphModel dx="1489" dy="877" grid="0" gridSize="10" guides="1" tooltips="1" connect="1" arrows="1" fold="1" page="1" pageScale="1" pageWidth="1654" pageHeight="1169" background="none" math="0" shadow="0">
      <root>
        <mxCell id="0" />
        <mxCell id="1" parent="0" />
        <mxCell id="JH5U76IGOBcUqnHT-_Kr-2" value="" style="rounded=0;whiteSpace=wrap;html=1;rotation=90;" parent="1" vertex="1">
          <mxGeometry x="22" y="177.81" width="1032.08" height="818.55" as="geometry" />
        </mxCell>
        <mxCell id="p_r1cKh_CzRkiVNsoP0s-78" style="edgeStyle=none;curved=1;rounded=0;orthogonalLoop=1;jettySize=auto;html=1;entryX=0;entryY=0.5;entryDx=0;entryDy=0;fontSize=12;startSize=8;endSize=8;endArrow=classic;endFill=1;exitX=1;exitY=0.3333333333333333;exitDx=0;exitDy=0;exitPerimeter=0;" parent="1" source="svQCepNTFexyG-QFbBfc-3" target="p_r1cKh_CzRkiVNsoP0s-5" edge="1">
          <mxGeometry relative="1" as="geometry" />
        </mxCell>
        <mxCell id="bwHQZoLI509qidypqNT2-47" style="rounded=0;orthogonalLoop=1;jettySize=auto;html=1;entryX=0;entryY=0.5;entryDx=0;entryDy=0;endArrow=classic;endFill=1;exitX=1;exitY=0.3333333333333333;exitDx=0;exitDy=0;exitPerimeter=0;endSize=8;startSize=8;" parent="1" source="svQCepNTFexyG-QFbBfc-3" target="JH5U76IGOBcUqnHT-_Kr-12" edge="1">
          <mxGeometry relative="1" as="geometry" />
        </mxCell>
        <mxCell id="pDSoibewKa74b2x92ERq-3" style="edgeStyle=none;curved=1;rounded=0;orthogonalLoop=1;jettySize=auto;html=1;entryX=0;entryY=1;entryDx=0;entryDy=0;fontSize=12;startSize=8;endSize=8;endArrow=classic;startFill=0;exitX=1;exitY=0.3333333333333333;exitDx=0;exitDy=0;exitPerimeter=0;endFill=1;" parent="1" source="svQCepNTFexyG-QFbBfc-3" target="PDdnuKzg3xYcXvbAcvYy-11" edge="1">
          <mxGeometry relative="1" as="geometry" />
        </mxCell>
        <mxCell id="svQCepNTFexyG-QFbBfc-3" value="Гость" style="shape=umlActor;verticalLabelPosition=bottom;verticalAlign=top;html=1;outlineConnect=0;fontFamily=Times New Roman;fontSize=13;whiteSpace=wrap;" parent="1" vertex="1">
          <mxGeometry x="61.03" y="977" width="30" height="60" as="geometry" />
        </mxCell>
        <mxCell id="OeR3qFUjESxq3L1rICcf-13" style="edgeStyle=none;shape=connector;rounded=0;orthogonalLoop=1;jettySize=auto;html=1;labelBackgroundColor=default;strokeColor=default;align=center;verticalAlign=middle;fontFamily=Helvetica;fontSize=11;fontColor=default;endArrow=classic;endFill=1;exitX=1;exitY=0.3333333333333333;exitDx=0;exitDy=0;exitPerimeter=0;endSize=8;startSize=8;" parent="1" source="svQCepNTFexyG-QFbBfc-7" target="OeR3qFUjESxq3L1rICcf-8" edge="1">
          <mxGeometry relative="1" as="geometry">
            <mxPoint x="111.03" y="889.3959841440901" as="sourcePoint" />
          </mxGeometry>
        </mxCell>
        <mxCell id="MzlMPMZbUSvePP-ofC2E-21" style="edgeStyle=none;curved=1;rounded=0;orthogonalLoop=1;jettySize=auto;html=1;entryX=0;entryY=1;entryDx=0;entryDy=0;fontSize=12;startSize=8;endSize=8;endArrow=classic;startFill=0;exitX=1;exitY=0.3333333333333333;exitDx=0;exitDy=0;exitPerimeter=0;endFill=1;" parent="1" source="svQCepNTFexyG-QFbBfc-7" target="MzlMPMZbUSvePP-ofC2E-16" edge="1">
          <mxGeometry relative="1" as="geometry">
            <mxPoint x="93.08000000000001" y="805" as="sourcePoint" />
          </mxGeometry>
        </mxCell>
        <mxCell id="MzlMPMZbUSvePP-ofC2E-22" style="edgeStyle=none;curved=1;rounded=0;orthogonalLoop=1;jettySize=auto;html=1;entryX=0.067;entryY=0.244;entryDx=0;entryDy=0;fontSize=12;startSize=8;endSize=8;endArrow=classic;startFill=0;entryPerimeter=0;exitX=1;exitY=0.3333333333333333;exitDx=0;exitDy=0;exitPerimeter=0;endFill=1;" parent="1" source="svQCepNTFexyG-QFbBfc-7" target="MzlMPMZbUSvePP-ofC2E-18" edge="1">
          <mxGeometry relative="1" as="geometry" />
        </mxCell>
        <mxCell id="MzlMPMZbUSvePP-ofC2E-54" style="edgeStyle=none;curved=1;rounded=0;orthogonalLoop=1;jettySize=auto;html=1;entryX=0.5;entryY=1;entryDx=0;entryDy=0;fontSize=12;startSize=8;endSize=8;endArrow=classic;startFill=0;exitX=1;exitY=0.3333333333333333;exitDx=0;exitDy=0;exitPerimeter=0;endFill=1;" parent="1" source="svQCepNTFexyG-QFbBfc-7" target="MzlMPMZbUSvePP-ofC2E-52" edge="1">
          <mxGeometry relative="1" as="geometry" />
        </mxCell>
        <mxCell id="PDdnuKzg3xYcXvbAcvYy-16" style="edgeStyle=none;curved=1;rounded=0;orthogonalLoop=1;jettySize=auto;html=1;entryX=0;entryY=0.5;entryDx=0;entryDy=0;fontSize=12;startSize=8;endSize=8;endArrow=classic;startFill=0;exitX=1;exitY=0.3333333333333333;exitDx=0;exitDy=0;exitPerimeter=0;endFill=1;" parent="1" source="svQCepNTFexyG-QFbBfc-7" target="PDdnuKzg3xYcXvbAcvYy-11" edge="1">
          <mxGeometry relative="1" as="geometry" />
        </mxCell>
        <mxCell id="PDdnuKzg3xYcXvbAcvYy-90" style="edgeStyle=none;curved=1;rounded=0;orthogonalLoop=1;jettySize=auto;html=1;fontSize=12;startSize=8;endSize=8;endArrow=classic;startFill=0;entryX=0;entryY=0.5;entryDx=0;entryDy=0;exitX=1;exitY=0.3333333333333333;exitDx=0;exitDy=0;exitPerimeter=0;endFill=1;" parent="1" source="svQCepNTFexyG-QFbBfc-7" target="PDdnuKzg3xYcXvbAcvYy-86" edge="1">
          <mxGeometry relative="1" as="geometry">
            <mxPoint x="493.08000000000004" y="895" as="targetPoint" />
          </mxGeometry>
        </mxCell>
        <mxCell id="svQCepNTFexyG-QFbBfc-7" value="Пользователь" style="shape=umlActor;verticalLabelPosition=bottom;verticalAlign=top;html=1;outlineConnect=0;fontFamily=Times New Roman;fontSize=13;whiteSpace=wrap;" parent="1" vertex="1">
          <mxGeometry x="64.08000000000001" y="793" width="30" height="60" as="geometry" />
        </mxCell>
        <mxCell id="JH5U76IGOBcUqnHT-_Kr-21" style="rounded=0;orthogonalLoop=1;jettySize=auto;html=1;exitX=0.5;exitY=0;exitDx=0;exitDy=0;dashed=1;endArrow=classic;endFill=1;entryX=0.5;entryY=1;entryDx=0;entryDy=0;" parent="1" source="OeR3qFUjESxq3L1rICcf-7" target="OeR3qFUjESxq3L1rICcf-10" edge="1">
          <mxGeometry relative="1" as="geometry" />
        </mxCell>
        <mxCell id="OeR3qFUjESxq3L1rICcf-7" value="&lt;span style=&quot;font-size: 13px;&quot;&gt;Подбор&lt;br&gt;&amp;nbsp;маршрутов по опросу&lt;/span&gt;" style="ellipse;whiteSpace=wrap;html=1;fontFamily=Times New Roman;" parent="1" vertex="1">
          <mxGeometry x="816.08" y="1024" width="110" height="70" as="geometry" />
        </mxCell>
        <mxCell id="OeR3qFUjESxq3L1rICcf-8" value="Подача заявки на бронирование тура" style="ellipse;whiteSpace=wrap;html=1;fontFamily=Times New Roman;fontSize=13;" parent="1" vertex="1">
          <mxGeometry x="218.08" y="832" width="110" height="70" as="geometry" />
        </mxCell>
        <mxCell id="OeR3qFUjESxq3L1rICcf-9" value="&lt;font&gt;Оставление отзывов к турам&amp;nbsp;&lt;/font&gt;" style="ellipse;whiteSpace=wrap;html=1;fontFamily=Times New Roman;fontSize=13;" parent="1" vertex="1">
          <mxGeometry x="135.98" y="885" width="109.05" height="69.4" as="geometry" />
        </mxCell>
        <mxCell id="pDSoibewKa74b2x92ERq-12" style="edgeStyle=none;curved=1;rounded=0;orthogonalLoop=1;jettySize=auto;html=1;exitX=0;exitY=0.5;exitDx=0;exitDy=0;entryX=1;entryY=0;entryDx=0;entryDy=0;fontSize=12;startSize=8;endSize=8;dashed=1;" parent="1" source="OeR3qFUjESxq3L1rICcf-10" target="pDSoibewKa74b2x92ERq-9" edge="1">
          <mxGeometry relative="1" as="geometry" />
        </mxCell>
        <mxCell id="OeR3qFUjESxq3L1rICcf-10" value="&lt;span style=&quot;font-size: 13px;&quot;&gt;Подбор&lt;/span&gt;&lt;div&gt;&lt;span style=&quot;font-size: 13px;&quot;&gt;маршрутов&lt;/span&gt;&lt;/div&gt;" style="ellipse;whiteSpace=wrap;html=1;fontFamily=Times New Roman;" parent="1" vertex="1">
          <mxGeometry x="816.0799999999999" y="885" width="110" height="70" as="geometry" />
        </mxCell>
        <mxCell id="MzlMPMZbUSvePP-ofC2E-49" style="edgeStyle=none;curved=1;rounded=0;orthogonalLoop=1;jettySize=auto;html=1;entryX=0.251;entryY=0.925;entryDx=0;entryDy=0;fontSize=12;startSize=8;endSize=8;endArrow=classic;startFill=0;entryPerimeter=0;endFill=1;" parent="1" target="MzlMPMZbUSvePP-ofC2E-41" edge="1">
          <mxGeometry relative="1" as="geometry">
            <mxPoint x="94.08000000000001" y="528" as="sourcePoint" />
          </mxGeometry>
        </mxCell>
        <mxCell id="MzlMPMZbUSvePP-ofC2E-55" style="edgeStyle=none;curved=1;rounded=0;orthogonalLoop=1;jettySize=auto;html=1;entryX=0.5;entryY=0;entryDx=0;entryDy=0;fontSize=12;startSize=8;endSize=8;endArrow=classic;startFill=0;exitX=1;exitY=0.3333333333333333;exitDx=0;exitDy=0;exitPerimeter=0;endFill=1;" parent="1" source="zMWsZsheXrGuxRjLxGXC-20" target="MzlMPMZbUSvePP-ofC2E-52" edge="1">
          <mxGeometry relative="1" as="geometry" />
        </mxCell>
        <mxCell id="3vdqsZ3w8sdcXz_G86xq-1" style="edgeStyle=none;curved=1;rounded=0;orthogonalLoop=1;jettySize=auto;html=1;entryX=0.5;entryY=0;entryDx=0;entryDy=0;fontSize=12;startSize=8;endSize=8;endArrow=classic;startFill=0;exitX=1;exitY=0.3333333333333333;exitDx=0;exitDy=0;exitPerimeter=0;endFill=1;" parent="1" source="zMWsZsheXrGuxRjLxGXC-20" target="MzlMPMZbUSvePP-ofC2E-16" edge="1">
          <mxGeometry relative="1" as="geometry" />
        </mxCell>
        <mxCell id="PDdnuKzg3xYcXvbAcvYy-12" style="edgeStyle=none;curved=1;rounded=0;orthogonalLoop=1;jettySize=auto;html=1;entryX=0.5;entryY=0;entryDx=0;entryDy=0;fontSize=12;startSize=8;endSize=8;endArrow=classic;startFill=0;exitX=1;exitY=0.3333333333333333;exitDx=0;exitDy=0;exitPerimeter=0;endFill=1;" parent="1" source="zMWsZsheXrGuxRjLxGXC-20" target="PDdnuKzg3xYcXvbAcvYy-11" edge="1">
          <mxGeometry relative="1" as="geometry" />
        </mxCell>
        <mxCell id="PDdnuKzg3xYcXvbAcvYy-24" style="edgeStyle=none;curved=1;rounded=0;orthogonalLoop=1;jettySize=auto;html=1;entryX=0.5;entryY=1;entryDx=0;entryDy=0;fontSize=12;startSize=8;endSize=8;endArrow=classic;startFill=0;exitX=1;exitY=0.3333333333333333;exitDx=0;exitDy=0;exitPerimeter=0;endFill=1;" parent="1" source="zMWsZsheXrGuxRjLxGXC-20" target="Wh_skNTm_gRzkw5U1JLL-6" edge="1">
          <mxGeometry relative="1" as="geometry" />
        </mxCell>
        <mxCell id="PDdnuKzg3xYcXvbAcvYy-26" style="edgeStyle=none;curved=1;rounded=0;orthogonalLoop=1;jettySize=auto;html=1;entryX=0.297;entryY=0.963;entryDx=0;entryDy=0;fontSize=12;startSize=8;endSize=8;endArrow=classic;startFill=0;exitX=1;exitY=0.3333333333333333;exitDx=0;exitDy=0;exitPerimeter=0;endFill=1;entryPerimeter=0;" parent="1" source="zMWsZsheXrGuxRjLxGXC-20" target="Wh_skNTm_gRzkw5U1JLL-7" edge="1">
          <mxGeometry relative="1" as="geometry" />
        </mxCell>
        <mxCell id="PDdnuKzg3xYcXvbAcvYy-27" style="edgeStyle=none;curved=1;rounded=0;orthogonalLoop=1;jettySize=auto;html=1;entryX=0.5;entryY=1;entryDx=0;entryDy=0;fontSize=12;startSize=8;endSize=8;endArrow=classic;startFill=0;exitX=1;exitY=0.3333333333333333;exitDx=0;exitDy=0;exitPerimeter=0;endFill=1;" parent="1" source="zMWsZsheXrGuxRjLxGXC-20" target="Wh_skNTm_gRzkw5U1JLL-13" edge="1">
          <mxGeometry relative="1" as="geometry">
            <mxPoint x="95.08000000000001" y="531" as="sourcePoint" />
          </mxGeometry>
        </mxCell>
        <mxCell id="PDdnuKzg3xYcXvbAcvYy-28" style="edgeStyle=none;curved=1;rounded=0;orthogonalLoop=1;jettySize=auto;html=1;entryX=0;entryY=0.5;entryDx=0;entryDy=0;fontSize=12;startSize=8;endSize=8;endArrow=classic;startFill=0;exitX=1;exitY=0.3333333333333333;exitDx=0;exitDy=0;exitPerimeter=0;endFill=1;" parent="1" source="zMWsZsheXrGuxRjLxGXC-20" target="Wh_skNTm_gRzkw5U1JLL-24" edge="1">
          <mxGeometry relative="1" as="geometry" />
        </mxCell>
        <mxCell id="PDdnuKzg3xYcXvbAcvYy-29" style="edgeStyle=none;curved=1;rounded=0;orthogonalLoop=1;jettySize=auto;html=1;entryX=0;entryY=0.5;entryDx=0;entryDy=0;fontSize=12;startSize=8;endSize=8;endArrow=classic;startFill=0;exitX=1;exitY=0.3333333333333333;exitDx=0;exitDy=0;exitPerimeter=0;endFill=1;" parent="1" source="zMWsZsheXrGuxRjLxGXC-20" target="Wh_skNTm_gRzkw5U1JLL-22" edge="1">
          <mxGeometry relative="1" as="geometry" />
        </mxCell>
        <mxCell id="PDdnuKzg3xYcXvbAcvYy-30" style="edgeStyle=none;curved=1;rounded=0;orthogonalLoop=1;jettySize=auto;html=1;entryX=0;entryY=0.5;entryDx=0;entryDy=0;fontSize=12;startSize=8;endSize=8;endArrow=classic;startFill=0;exitX=1;exitY=0.3333333333333333;exitDx=0;exitDy=0;exitPerimeter=0;endFill=1;" parent="1" source="zMWsZsheXrGuxRjLxGXC-20" target="Wh_skNTm_gRzkw5U1JLL-8" edge="1">
          <mxGeometry relative="1" as="geometry" />
        </mxCell>
        <mxCell id="PDdnuKzg3xYcXvbAcvYy-31" style="edgeStyle=none;curved=1;rounded=0;orthogonalLoop=1;jettySize=auto;html=1;entryX=0;entryY=0.5;entryDx=0;entryDy=0;fontSize=12;startSize=8;endSize=8;endArrow=classic;startFill=0;exitX=1;exitY=0.3333333333333333;exitDx=0;exitDy=0;exitPerimeter=0;endFill=1;" parent="1" source="zMWsZsheXrGuxRjLxGXC-20" target="Wh_skNTm_gRzkw5U1JLL-12" edge="1">
          <mxGeometry relative="1" as="geometry" />
        </mxCell>
        <mxCell id="PDdnuKzg3xYcXvbAcvYy-32" style="edgeStyle=none;curved=1;rounded=0;orthogonalLoop=1;jettySize=auto;html=1;entryX=0;entryY=0.5;entryDx=0;entryDy=0;fontSize=12;startSize=8;endSize=8;endArrow=classic;startFill=0;exitX=1;exitY=0.3333333333333333;exitDx=0;exitDy=0;exitPerimeter=0;endFill=1;" parent="1" source="zMWsZsheXrGuxRjLxGXC-20" target="Wh_skNTm_gRzkw5U1JLL-27" edge="1">
          <mxGeometry relative="1" as="geometry" />
        </mxCell>
        <mxCell id="PDdnuKzg3xYcXvbAcvYy-33" style="edgeStyle=none;curved=1;rounded=0;orthogonalLoop=1;jettySize=auto;html=1;entryX=0;entryY=0.5;entryDx=0;entryDy=0;fontSize=12;startSize=8;endSize=8;endArrow=classic;startFill=0;exitX=1;exitY=0.3333333333333333;exitDx=0;exitDy=0;exitPerimeter=0;endFill=1;" parent="1" source="zMWsZsheXrGuxRjLxGXC-20" target="Wh_skNTm_gRzkw5U1JLL-10" edge="1">
          <mxGeometry relative="1" as="geometry" />
        </mxCell>
        <mxCell id="PDdnuKzg3xYcXvbAcvYy-34" style="edgeStyle=none;curved=1;rounded=0;orthogonalLoop=1;jettySize=auto;html=1;entryX=0;entryY=0.5;entryDx=0;entryDy=0;fontSize=12;startSize=8;endSize=8;endArrow=classic;startFill=0;exitX=1;exitY=0.3333333333333333;exitDx=0;exitDy=0;exitPerimeter=0;endFill=1;" parent="1" source="zMWsZsheXrGuxRjLxGXC-20" target="Wh_skNTm_gRzkw5U1JLL-2" edge="1">
          <mxGeometry relative="1" as="geometry" />
        </mxCell>
        <mxCell id="PDdnuKzg3xYcXvbAcvYy-35" style="edgeStyle=none;curved=1;rounded=0;orthogonalLoop=1;jettySize=auto;html=1;entryX=0;entryY=0.5;entryDx=0;entryDy=0;fontSize=12;startSize=8;endSize=8;endArrow=classic;startFill=0;exitX=1;exitY=0.3333333333333333;exitDx=0;exitDy=0;exitPerimeter=0;endFill=1;" parent="1" source="zMWsZsheXrGuxRjLxGXC-20" target="Wh_skNTm_gRzkw5U1JLL-11" edge="1">
          <mxGeometry relative="1" as="geometry" />
        </mxCell>
        <mxCell id="PDdnuKzg3xYcXvbAcvYy-36" style="edgeStyle=none;curved=1;rounded=0;orthogonalLoop=1;jettySize=auto;html=1;entryX=0;entryY=0;entryDx=0;entryDy=0;fontSize=12;startSize=8;endSize=8;endArrow=classic;startFill=0;exitX=1;exitY=0.3333333333333333;exitDx=0;exitDy=0;exitPerimeter=0;endFill=1;" parent="1" source="zMWsZsheXrGuxRjLxGXC-20" target="Wh_skNTm_gRzkw5U1JLL-23" edge="1">
          <mxGeometry relative="1" as="geometry">
            <mxPoint x="94.08000000000001" y="544" as="sourcePoint" />
          </mxGeometry>
        </mxCell>
        <mxCell id="zMWsZsheXrGuxRjLxGXC-20" value="Менеджер" style="shape=umlActor;verticalLabelPosition=bottom;verticalAlign=top;html=1;outlineConnect=0;fontFamily=Times New Roman;fontSize=13;whiteSpace=wrap;" parent="1" vertex="1">
          <mxGeometry x="64.08000000000001" y="508" width="30" height="60" as="geometry" />
        </mxCell>
        <mxCell id="Tde1RYHnbCcCl4A8BDwN-28" style="rounded=0;orthogonalLoop=1;jettySize=auto;html=1;endArrow=none;endFill=1;entryX=1;entryY=0.3333333333333333;entryDx=0;entryDy=0;entryPerimeter=0;startArrow=classic;startFill=1;endSize=8;startSize=8;" parent="1" source="zMWsZsheXrGuxRjLxGXC-27" target="zMWsZsheXrGuxRjLxGXC-20" edge="1">
          <mxGeometry relative="1" as="geometry">
            <mxPoint x="95.08000000000001" y="523" as="targetPoint" />
          </mxGeometry>
        </mxCell>
        <mxCell id="zMWsZsheXrGuxRjLxGXC-27" value="Подтверждение заявки на бронь тура" style="ellipse;whiteSpace=wrap;html=1;fontFamily=Times New Roman;fontSize=13;" parent="1" vertex="1">
          <mxGeometry x="150.03" y="303" width="122" height="70" as="geometry" />
        </mxCell>
        <mxCell id="nBBlVvWBp2isnyXZccdl-5" style="edgeStyle=none;curved=1;rounded=0;orthogonalLoop=1;jettySize=auto;html=1;entryX=0;entryY=0;entryDx=0;entryDy=0;fontSize=12;startSize=8;endSize=8;endArrow=classic;endFill=1;exitX=1;exitY=0.3333333333333333;exitDx=0;exitDy=0;exitPerimeter=0;" parent="1" source="zMWsZsheXrGuxRjLxGXC-35" target="zMWsZsheXrGuxRjLxGXC-46" edge="1">
          <mxGeometry relative="1" as="geometry">
            <mxPoint x="96.08000000000001" y="128" as="sourcePoint" />
          </mxGeometry>
        </mxCell>
        <mxCell id="PDdnuKzg3xYcXvbAcvYy-73" style="edgeStyle=none;curved=1;rounded=0;orthogonalLoop=1;jettySize=auto;html=1;entryX=0;entryY=0.5;entryDx=0;entryDy=0;fontSize=12;startSize=8;endSize=8;endArrow=classic;startFill=0;exitX=1;exitY=0.3333333333333333;exitDx=0;exitDy=0;exitPerimeter=0;endFill=1;" parent="1" source="zMWsZsheXrGuxRjLxGXC-35" target="PDdnuKzg3xYcXvbAcvYy-65" edge="1">
          <mxGeometry relative="1" as="geometry" />
        </mxCell>
        <mxCell id="PDdnuKzg3xYcXvbAcvYy-74" style="edgeStyle=none;curved=1;rounded=0;orthogonalLoop=1;jettySize=auto;html=1;entryX=0;entryY=0.5;entryDx=0;entryDy=0;fontSize=12;startSize=8;endSize=8;endArrow=classic;startFill=0;exitX=1;exitY=0.3333333333333333;exitDx=0;exitDy=0;exitPerimeter=0;endFill=1;" parent="1" source="zMWsZsheXrGuxRjLxGXC-35" target="PDdnuKzg3xYcXvbAcvYy-64" edge="1">
          <mxGeometry relative="1" as="geometry" />
        </mxCell>
        <mxCell id="PDdnuKzg3xYcXvbAcvYy-75" style="edgeStyle=none;curved=1;rounded=0;orthogonalLoop=1;jettySize=auto;html=1;entryX=0.054;entryY=0.262;entryDx=0;entryDy=0;fontSize=12;startSize=8;endSize=8;endArrow=classic;startFill=0;exitX=1;exitY=0.3333333333333333;exitDx=0;exitDy=0;exitPerimeter=0;endFill=1;entryPerimeter=0;" parent="1" source="zMWsZsheXrGuxRjLxGXC-35" target="PDdnuKzg3xYcXvbAcvYy-70" edge="1">
          <mxGeometry relative="1" as="geometry">
            <mxPoint x="449.4589321881343" y="195.07106781186553" as="targetPoint" />
          </mxGeometry>
        </mxCell>
        <mxCell id="PDdnuKzg3xYcXvbAcvYy-76" style="edgeStyle=none;curved=1;rounded=0;orthogonalLoop=1;jettySize=auto;html=1;entryX=0;entryY=1;entryDx=0;entryDy=0;fontSize=12;startSize=8;endSize=8;endArrow=classic;startFill=0;exitX=1;exitY=0.3333333333333333;exitDx=0;exitDy=0;exitPerimeter=0;endFill=1;" parent="1" source="zMWsZsheXrGuxRjLxGXC-35" edge="1">
          <mxGeometry relative="1" as="geometry">
            <mxPoint x="327.5089321881711" y="231.5710678118287" as="targetPoint" />
          </mxGeometry>
        </mxCell>
        <mxCell id="zMWsZsheXrGuxRjLxGXC-35" value="Администратор" style="shape=umlActor;verticalLabelPosition=bottom;verticalAlign=top;html=1;outlineConnect=0;fontFamily=Times New Roman;fontSize=13;whiteSpace=wrap;" parent="1" vertex="1">
          <mxGeometry x="64.08000000000001" y="107" width="30" height="60" as="geometry" />
        </mxCell>
        <mxCell id="zMWsZsheXrGuxRjLxGXC-46" value="Удаление отзывов к турам" style="ellipse;whiteSpace=wrap;html=1;fontFamily=Times New Roman;fontSize=13;" parent="1" vertex="1">
          <mxGeometry x="170.03" y="214.5" width="119" height="70" as="geometry" />
        </mxCell>
        <mxCell id="p_r1cKh_CzRkiVNsoP0s-5" value="&lt;span style=&quot;font-size: 13px;&quot;&gt;Авторизация&lt;/span&gt;" style="ellipse;whiteSpace=wrap;html=1;fontFamily=Times New Roman;" parent="1" vertex="1">
          <mxGeometry x="331.08000000000004" y="959" width="110" height="70" as="geometry" />
        </mxCell>
        <mxCell id="p_r1cKh_CzRkiVNsoP0s-27" style="edgeStyle=none;curved=1;rounded=0;orthogonalLoop=1;jettySize=auto;html=1;exitX=1;exitY=0.5;exitDx=0;exitDy=0;fontSize=12;startSize=8;endSize=8;" parent="1" edge="1">
          <mxGeometry relative="1" as="geometry">
            <mxPoint x="711.029999999996" y="725" as="sourcePoint" />
            <mxPoint x="711.029999999996" y="725" as="targetPoint" />
          </mxGeometry>
        </mxCell>
        <mxCell id="JH5U76IGOBcUqnHT-_Kr-12" value="&lt;span style=&quot;font-size: 13px;&quot;&gt;Регистрация&lt;/span&gt;" style="ellipse;whiteSpace=wrap;html=1;fontFamily=Times New Roman;" parent="1" vertex="1">
          <mxGeometry x="234.58000000000007" y="1024" width="110" height="70" as="geometry" />
        </mxCell>
        <mxCell id="JH5U76IGOBcUqnHT-_Kr-34" style="edgeStyle=orthogonalEdgeStyle;rounded=0;orthogonalLoop=1;jettySize=auto;html=1;exitX=0.5;exitY=1;exitDx=0;exitDy=0;" parent="1" edge="1">
          <mxGeometry relative="1" as="geometry">
            <mxPoint x="440.08000000000004" y="242" as="sourcePoint" />
            <mxPoint x="440.08000000000004" y="242" as="targetPoint" />
          </mxGeometry>
        </mxCell>
        <mxCell id="MzlMPMZbUSvePP-ofC2E-16" value="Отмена заявки на бронирование тура" style="ellipse;whiteSpace=wrap;html=1;fontFamily=Times New Roman;fontSize=13;" parent="1" vertex="1">
          <mxGeometry x="237.07999999999996" y="653" width="115.95" height="70" as="geometry" />
        </mxCell>
        <mxCell id="MzlMPMZbUSvePP-ofC2E-18" value="Оплата забронированного тура" style="ellipse;whiteSpace=wrap;html=1;fontFamily=Times New Roman;fontSize=13;" parent="1" vertex="1">
          <mxGeometry x="333.08000000000004" y="816" width="110" height="70" as="geometry" />
        </mxCell>
        <mxCell id="MzlMPMZbUSvePP-ofC2E-26" style="edgeStyle=none;curved=1;rounded=0;orthogonalLoop=1;jettySize=auto;html=1;exitX=1;exitY=0.5;exitDx=0;exitDy=0;fontSize=12;startSize=8;endSize=8;" parent="1" edge="1">
          <mxGeometry relative="1" as="geometry">
            <mxPoint x="672.029999999996" y="433" as="sourcePoint" />
            <mxPoint x="672.029999999996" y="433" as="targetPoint" />
          </mxGeometry>
        </mxCell>
        <mxCell id="MzlMPMZbUSvePP-ofC2E-33" style="edgeStyle=none;curved=1;rounded=0;orthogonalLoop=1;jettySize=auto;html=1;exitX=1;exitY=0.5;exitDx=0;exitDy=0;fontSize=12;startSize=8;endSize=8;" parent="1" edge="1">
          <mxGeometry relative="1" as="geometry">
            <mxPoint x="889.029999999996" y="602" as="sourcePoint" />
            <mxPoint x="889.029999999996" y="602" as="targetPoint" />
          </mxGeometry>
        </mxCell>
        <mxCell id="MzlMPMZbUSvePP-ofC2E-41" value="Смена цены забронированного тура" style="ellipse;whiteSpace=wrap;html=1;fontFamily=Times New Roman;fontSize=13;" parent="1" vertex="1">
          <mxGeometry x="290.08000000000004" y="301" width="127.05" height="70" as="geometry" />
        </mxCell>
        <mxCell id="MzlMPMZbUSvePP-ofC2E-52" value="Редактирование профиля" style="ellipse;whiteSpace=wrap;html=1;fontFamily=Times New Roman;fontSize=13;" parent="1" vertex="1">
          <mxGeometry x="135.03" y="622" width="110" height="70" as="geometry" />
        </mxCell>
        <mxCell id="Wh_skNTm_gRzkw5U1JLL-2" value="Удаление туров" style="ellipse;whiteSpace=wrap;html=1;fontFamily=Times New Roman;fontSize=13;" parent="1" vertex="1">
          <mxGeometry x="634.08" y="610" width="118" height="70" as="geometry" />
        </mxCell>
        <mxCell id="Wh_skNTm_gRzkw5U1JLL-6" value="Удаление стран" style="ellipse;whiteSpace=wrap;html=1;fontFamily=Times New Roman;fontSize=13;" parent="1" vertex="1">
          <mxGeometry x="424.08000000000004" y="256" width="118" height="70" as="geometry" />
        </mxCell>
        <mxCell id="Wh_skNTm_gRzkw5U1JLL-7" value="Редактирование стран" style="ellipse;whiteSpace=wrap;html=1;fontFamily=Times New Roman;fontSize=13;" parent="1" vertex="1">
          <mxGeometry x="559.13" y="223" width="118" height="70" as="geometry" />
        </mxCell>
        <mxCell id="Wh_skNTm_gRzkw5U1JLL-8" value="Добавление&amp;nbsp;&lt;br&gt;&lt;span style=&quot;background-color: transparent; color: light-dark(rgb(0, 0, 0), rgb(255, 255, 255));&quot;&gt;пунктов отправлений&lt;/span&gt;" style="ellipse;whiteSpace=wrap;html=1;fontFamily=Times New Roman;fontSize=13;" parent="1" vertex="1">
          <mxGeometry x="668.98" y="394" width="118" height="70" as="geometry" />
        </mxCell>
        <mxCell id="Wh_skNTm_gRzkw5U1JLL-10" value="Добавление отелей" style="ellipse;whiteSpace=wrap;html=1;fontFamily=Times New Roman;fontSize=13;" parent="1" vertex="1">
          <mxGeometry x="524.0300000000001" y="554" width="118" height="70" as="geometry" />
        </mxCell>
        <mxCell id="Wh_skNTm_gRzkw5U1JLL-11" value="Редактирование туров" style="ellipse;whiteSpace=wrap;html=1;fontFamily=Times New Roman;fontSize=13;" parent="1" vertex="1">
          <mxGeometry x="652.08" y="688" width="118" height="70" as="geometry" />
        </mxCell>
        <mxCell id="Wh_skNTm_gRzkw5U1JLL-12" value="Удаление отелей" style="ellipse;whiteSpace=wrap;html=1;fontFamily=Times New Roman;fontSize=13;" parent="1" vertex="1">
          <mxGeometry x="544.08" y="458" width="118" height="70" as="geometry" />
        </mxCell>
        <mxCell id="Wh_skNTm_gRzkw5U1JLL-13" value="Добавление стран" style="ellipse;whiteSpace=wrap;html=1;fontFamily=Times New Roman;fontSize=13;" parent="1" vertex="1">
          <mxGeometry x="688.13" y="189.5" width="118" height="70" as="geometry" />
        </mxCell>
        <mxCell id="Wh_skNTm_gRzkw5U1JLL-22" value="Редактирование&lt;div&gt;пунктов отправлений&lt;/div&gt;" style="ellipse;whiteSpace=wrap;html=1;fontFamily=Times New Roman;fontSize=13;" parent="1" vertex="1">
          <mxGeometry x="748.13" y="324" width="124.95" height="70" as="geometry" />
        </mxCell>
        <mxCell id="Wh_skNTm_gRzkw5U1JLL-23" value="Добавление туров" style="ellipse;whiteSpace=wrap;html=1;fontFamily=Times New Roman;fontSize=13;" parent="1" vertex="1">
          <mxGeometry x="682.13" y="762" width="118" height="70" as="geometry" />
        </mxCell>
        <mxCell id="Wh_skNTm_gRzkw5U1JLL-24" value="Удаление пунктов отправлений" style="ellipse;whiteSpace=wrap;html=1;fontFamily=Times New Roman;fontSize=13;" parent="1" vertex="1">
          <mxGeometry x="806.13" y="240" width="124.95" height="70" as="geometry" />
        </mxCell>
        <mxCell id="Wh_skNTm_gRzkw5U1JLL-27" value="Редактирование отелей" style="ellipse;whiteSpace=wrap;html=1;fontFamily=Times New Roman;fontSize=13;" parent="1" vertex="1">
          <mxGeometry x="667.0800000000002" y="503" width="118" height="70" as="geometry" />
        </mxCell>
        <mxCell id="pDSoibewKa74b2x92ERq-5" style="edgeStyle=none;curved=1;rounded=0;orthogonalLoop=1;jettySize=auto;html=1;fontSize=12;startSize=8;endSize=8;endArrow=classic;startFill=0;endFill=1;dashed=1;" parent="1" source="Wh_skNTm_gRzkw5U1JLL-28" target="PDdnuKzg3xYcXvbAcvYy-11" edge="1">
          <mxGeometry relative="1" as="geometry" />
        </mxCell>
        <mxCell id="Wh_skNTm_gRzkw5U1JLL-28" value="&lt;font style=&quot;font-size: 13px;&quot;&gt;Просмотр стран&lt;/font&gt;" style="ellipse;whiteSpace=wrap;html=1;fontFamily=Times New Roman;" parent="1" vertex="1">
          <mxGeometry x="356.5300000000001" y="716" width="110" height="70" as="geometry" />
        </mxCell>
        <mxCell id="pDSoibewKa74b2x92ERq-6" style="edgeStyle=none;curved=1;rounded=0;orthogonalLoop=1;jettySize=auto;html=1;entryX=0.354;entryY=0.986;entryDx=0;entryDy=0;fontSize=12;startSize=8;endSize=8;dashed=1;entryPerimeter=0;" parent="1" source="Wh_skNTm_gRzkw5U1JLL-29" target="PDdnuKzg3xYcXvbAcvYy-11" edge="1">
          <mxGeometry relative="1" as="geometry" />
        </mxCell>
        <mxCell id="Wh_skNTm_gRzkw5U1JLL-29" value="&lt;font style=&quot;font-size: 13px;&quot;&gt;Просмотр отелей&lt;/font&gt;" style="ellipse;whiteSpace=wrap;html=1;fontFamily=Times New Roman;" parent="1" vertex="1">
          <mxGeometry x="410.08000000000004" y="894" width="109" height="70" as="geometry" />
        </mxCell>
        <mxCell id="PDdnuKzg3xYcXvbAcvYy-78" style="edgeStyle=none;curved=1;rounded=0;orthogonalLoop=1;jettySize=auto;html=1;fontSize=12;startSize=8;endSize=8;entryX=0;entryY=1;entryDx=0;entryDy=0;endArrow=classic;endFill=1;dashed=1;" parent="1" source="Wh_skNTm_gRzkw5U1JLL-30" target="OeR3qFUjESxq3L1rICcf-10" edge="1">
          <mxGeometry relative="1" as="geometry" />
        </mxCell>
        <mxCell id="Wh_skNTm_gRzkw5U1JLL-30" value="&lt;font style=&quot;font-size: 13px;&quot;&gt;Фильтрация&lt;/font&gt;&lt;div&gt;&lt;font style=&quot;font-size: 13px;&quot;&gt;маршрутов&lt;/font&gt;&lt;/div&gt;" style="ellipse;whiteSpace=wrap;html=1;fontFamily=Times New Roman;" parent="1" vertex="1">
          <mxGeometry x="642.0799999999999" y="1024" width="110" height="70" as="geometry" />
        </mxCell>
        <mxCell id="PDdnuKzg3xYcXvbAcvYy-80" style="edgeStyle=none;curved=1;rounded=0;orthogonalLoop=1;jettySize=auto;html=1;entryX=0.5;entryY=0;entryDx=0;entryDy=0;fontSize=12;startSize=8;endSize=8;endArrow=classic;endFill=1;dashed=1;" parent="1" source="Wh_skNTm_gRzkw5U1JLL-32" target="OeR3qFUjESxq3L1rICcf-10" edge="1">
          <mxGeometry relative="1" as="geometry" />
        </mxCell>
        <mxCell id="Wh_skNTm_gRzkw5U1JLL-32" value="&lt;font style=&quot;font-size: 13px;&quot;&gt;Подбор&lt;br&gt;&amp;nbsp;маршрутов с помощью ИИ&lt;/font&gt;" style="ellipse;whiteSpace=wrap;html=1;fontFamily=Times New Roman;" parent="1" vertex="1">
          <mxGeometry x="816.08" y="692" width="110" height="70" as="geometry" />
        </mxCell>
        <mxCell id="PDdnuKzg3xYcXvbAcvYy-11" value="&lt;font style=&quot;font-size: 13px;&quot;&gt;Просмотр информации о турах&lt;/font&gt;" style="ellipse;whiteSpace=wrap;html=1;fontFamily=Times New Roman;" parent="1" vertex="1">
          <mxGeometry x="559.1300000000002" y="776" width="110" height="70" as="geometry" />
        </mxCell>
        <mxCell id="PDdnuKzg3xYcXvbAcvYy-23" style="edgeStyle=none;curved=1;rounded=0;orthogonalLoop=1;jettySize=auto;html=1;exitX=0;exitY=0.5;exitDx=0;exitDy=0;fontSize=12;startSize=8;endSize=8;" parent="1" source="Wh_skNTm_gRzkw5U1JLL-24" target="Wh_skNTm_gRzkw5U1JLL-24" edge="1">
          <mxGeometry relative="1" as="geometry" />
        </mxCell>
        <mxCell id="PDdnuKzg3xYcXvbAcvYy-64" value="Блокировка пользователей" style="ellipse;whiteSpace=wrap;html=1;fontFamily=Times New Roman;fontSize=13;" parent="1" vertex="1">
          <mxGeometry x="435.5300000000001" y="75" width="114" height="70" as="geometry" />
        </mxCell>
        <mxCell id="PDdnuKzg3xYcXvbAcvYy-65" value="Удаление пользователей" style="ellipse;whiteSpace=wrap;html=1;fontFamily=Times New Roman;fontSize=13;" parent="1" vertex="1">
          <mxGeometry x="563.03" y="122" width="114" height="70" as="geometry" />
        </mxCell>
        <mxCell id="PDdnuKzg3xYcXvbAcvYy-66" value="Смена роли пользователей" style="ellipse;whiteSpace=wrap;html=1;fontFamily=Times New Roman;fontSize=13;" parent="1" vertex="1">
          <mxGeometry x="314.58000000000004" y="214.5" width="114" height="70" as="geometry" />
        </mxCell>
        <mxCell id="PDdnuKzg3xYcXvbAcvYy-70" value="Разблокировка пользователей" style="ellipse;whiteSpace=wrap;html=1;fontFamily=Times New Roman;fontSize=13;" parent="1" vertex="1">
          <mxGeometry x="433.5300000000001" y="178" width="114" height="70" as="geometry" />
        </mxCell>
        <mxCell id="bwHQZoLI509qidypqNT2-46" value="&lt;font&gt;&amp;lt;&amp;lt;расширить&amp;gt;&amp;gt;&lt;/font&gt;" style="edgeLabel;html=1;align=center;verticalAlign=middle;resizable=0;points=[];fontSize=12;whiteSpace=wrap;" parent="1" vertex="1" connectable="0">
          <mxGeometry x="810.6019687346944" y="798.9962314473769" as="geometry">
            <mxPoint x="64" y="-9" as="offset" />
          </mxGeometry>
        </mxCell>
        <mxCell id="PDdnuKzg3xYcXvbAcvYy-81" value="&lt;font&gt;&amp;lt;&amp;lt;расширить&amp;gt;&amp;gt;&lt;/font&gt;" style="edgeLabel;html=1;align=center;verticalAlign=middle;resizable=0;points=[];fontSize=12;whiteSpace=wrap;" parent="1" vertex="1" connectable="0">
          <mxGeometry x="810.6019687346944" y="1008.9962314473769" as="geometry">
            <mxPoint x="64" y="-9" as="offset" />
          </mxGeometry>
        </mxCell>
        <mxCell id="PDdnuKzg3xYcXvbAcvYy-82" value="&lt;font&gt;&amp;lt;&amp;lt;расширить&amp;gt;&amp;gt;&lt;/font&gt;" style="edgeLabel;html=1;align=center;verticalAlign=middle;resizable=0;points=[];fontSize=12;whiteSpace=wrap;" parent="1" vertex="1" connectable="0">
          <mxGeometry x="705.0019687346944" y="1001.9962314473769" as="geometry">
            <mxPoint x="64" y="-9" as="offset" />
          </mxGeometry>
        </mxCell>
        <mxCell id="PDdnuKzg3xYcXvbAcvYy-85" style="rounded=0;orthogonalLoop=1;jettySize=auto;html=1;endArrow=block;endFill=0;" parent="1" edge="1">
          <mxGeometry relative="1" as="geometry">
            <mxPoint x="78.85" y="201" as="sourcePoint" />
            <mxPoint x="79.31999999999996" y="500" as="targetPoint" />
          </mxGeometry>
        </mxCell>
        <mxCell id="PDdnuKzg3xYcXvbAcvYy-86" value="Просмотр истории бронирований" style="ellipse;whiteSpace=wrap;html=1;fontFamily=Times New Roman;fontSize=13;" parent="1" vertex="1">
          <mxGeometry x="234.08" y="734" width="113" height="70" as="geometry" />
        </mxCell>
        <mxCell id="pDSoibewKa74b2x92ERq-7" value="&lt;font&gt;&amp;lt;&amp;lt;расширить&amp;gt;&amp;gt;&lt;/font&gt;" style="edgeLabel;html=1;align=center;verticalAlign=middle;resizable=0;points=[];fontSize=12;whiteSpace=wrap;" parent="1" vertex="1" connectable="0">
          <mxGeometry x="443.08196873469444" y="785.9962314473769" as="geometry">
            <mxPoint x="64" y="-9" as="offset" />
          </mxGeometry>
        </mxCell>
        <mxCell id="pDSoibewKa74b2x92ERq-8" value="&lt;font&gt;&amp;lt;&amp;lt;расширить&amp;gt;&amp;gt;&lt;/font&gt;" style="edgeLabel;html=1;align=center;verticalAlign=middle;resizable=0;points=[];fontSize=12;whiteSpace=wrap;" parent="1" vertex="1" connectable="0">
          <mxGeometry x="479.08196873469444" y="888.9962314473769" as="geometry">
            <mxPoint x="64" y="-9" as="offset" />
          </mxGeometry>
        </mxCell>
        <mxCell id="pDSoibewKa74b2x92ERq-11" style="edgeStyle=none;curved=1;rounded=0;orthogonalLoop=1;jettySize=auto;html=1;entryX=0.5;entryY=1;entryDx=0;entryDy=0;fontSize=12;startSize=8;endSize=8;dashed=1;" parent="1" source="pDSoibewKa74b2x92ERq-9" target="PDdnuKzg3xYcXvbAcvYy-11" edge="1">
          <mxGeometry relative="1" as="geometry" />
        </mxCell>
        <mxCell id="pDSoibewKa74b2x92ERq-9" value="&lt;font style=&quot;font-size: 13px;&quot;&gt;Просмотр маршрутов&lt;/font&gt;" style="ellipse;whiteSpace=wrap;html=1;fontFamily=Times New Roman;" parent="1" vertex="1">
          <mxGeometry x="559.98" y="955" width="109" height="70" as="geometry" />
        </mxCell>
        <mxCell id="pDSoibewKa74b2x92ERq-10" value="&lt;font&gt;&amp;lt;&amp;lt;расширить&amp;gt;&amp;gt;&lt;/font&gt;" style="edgeLabel;html=1;align=center;verticalAlign=middle;resizable=0;points=[];fontSize=12;whiteSpace=wrap;" parent="1" vertex="1" connectable="0">
          <mxGeometry x="552.0819687346944" y="928.9962314473769" as="geometry">
            <mxPoint x="64" y="-9" as="offset" />
          </mxGeometry>
        </mxCell>
        <mxCell id="pDSoibewKa74b2x92ERq-13" value="&lt;font&gt;&amp;lt;&amp;lt;расширить&amp;gt;&amp;gt;&lt;/font&gt;" style="edgeLabel;html=1;align=center;verticalAlign=middle;resizable=0;points=[];fontSize=12;whiteSpace=wrap;" parent="1" vertex="1" connectable="0">
          <mxGeometry x="688.1319687346944" y="944.9962314473769" as="geometry">
            <mxPoint x="64" y="-9" as="offset" />
          </mxGeometry>
        </mxCell>
      </root>
    </mxGraphModel>
  </diagram>
</mxfile>
